<?xml version="1.0" encoding="utf-8"?>
<!-- Generator: Adobe Illustrator 25.2.1, SVG Export Plug-In . SVG Version: 6.00 Build 0)  -->
<svg version="1.1" id="Layer_1" xmlns="http://www.w3.org/2000/svg" xmlns:xlink="http://www.w3.org/1999/xlink" x="0px" y="0px"
	 viewBox="0 0 1920 1080" style="enable-background:new 0 0 1920 1080;" xml:space="preserve">
<style type="text/css">
	.st0{display:none;fill:#131825;}
	.st1{fill:#D0AB39;stroke:#D0AB39;stroke-miterlimit:10;}
	.st2{fill:#FCFDFF;}
	.st3{fill:#FFFFFF;}
	.st4{font-family:'OriyaMN';}
	.st5{font-size:20.7273px;}
	.st6{fill:#262B4A;}
	.st7{fill:#D0AB39;}
	.st8{fill:#131826;}
	.st9{fill:none;}
	.st10{font-family:'OriyaMN-Bold';}
	.st11{font-size:94px;}
</style>
<rect class="st0" width="1920" height="1080"/>
<line class="st1" x1="660.89" y1="1079.53" x2="893.37" y2="631.41"/>
<line class="st1" x1="718.04" y1="1079.53" x2="893.37" y2="753.23"/>
<rect x="77.95" y="88" class="st2" width="88.6" height="80.39"/>
<g>
	<text transform="matrix(0.9823 0 0 1 77.9505 191.5958)"><tspan x="0" y="0" class="st3 st4 st5">C U B E</tspan><tspan x="71.77" y="0" class="st6 st4 st5"> </tspan><tspan x="76.83" y="0" class="st7 st4 st5">X</tspan></text>
</g>
<polygon class="st8" points="105.84,102.92 113.31,90.96 138.82,151.97 139.06,152.7 138.76,153.37 137.88,155.05 136.87,156.95 
	135.63,158.9 134.39,160.92 133.62,162.03 132.8,163.1 131.85,164.1 "/>
<path class="st7" d="M101.51,157.87c0,0,0-1.1,0-1.13c0-1.23,1.24-2.9,1.91-3.94c0,0,2.75-4.28,2.75-4.28l2.87-4.01l3.77-5.14
	l6.46-9.31l7.75-10.53l5.86-8.18l4.37-6.11l2.68-4.04l0.58-0.81l0.38-0.34l0.36-0.16l0.26,0.09v0.41l-0.38,0.88l-1.06,2.62
	l-2.3,3.78l-4.59,6.6l-3.65,5.05l-5.5,7.84l-18.45,25.85c-1.12,1.33-2.01,2.82-3.01,4.23l-0.71,0.82L101.51,157.87z"/>
<line class="st1" x1="945.42" y1="448.13" x2="1177.9" y2="0"/>
<line class="st1" x1="1061.66" y1="330.18" x2="1236.99" y2="3.87"/>
<rect x="555.8" y="479.98" class="st9" width="778.6" height="199.26"/>
<text transform="matrix(1 0 0 1 566.7822 550.9429)" class="st3 st10 st11">Coming Soon ... !</text>
</svg>
